<mxfile host="drawio-plugin" modified="2023-11-16T16:03:46.101Z" agent="5.0 (Windows NT 10.0; Win64; x64) AppleWebKit/537.36 (KHTML, like Gecko) Chrome/111.0.0.0 Safari/537.36" etag="sh4NHX56vA3f5cm8DfjX" version="20.5.3" type="embed"><diagram id="C5RBs43oDa-KdzZeNtuy" name="Page-1"><mxGraphModel dx="1376" dy="728" grid="1" gridSize="10" guides="1" tooltips="1" connect="1" arrows="1" fold="1" page="1" pageScale="1" pageWidth="2339" pageHeight="3300" background="#283618" math="0" shadow="0"><root><mxCell id="WIyWlLk6GJQsqaUBKTNV-0"/><mxCell id="WIyWlLk6GJQsqaUBKTNV-1" parent="WIyWlLk6GJQsqaUBKTNV-0"/><mxCell id="zkfFHV4jXpPFQw0GAbJ--17" value="Science" style="swimlane;fontStyle=1;align=center;verticalAlign=top;childLayout=stackLayout;horizontal=1;startSize=26;horizontalStack=0;resizeParent=1;resizeLast=0;collapsible=1;marginBottom=0;rounded=0;shadow=0;strokeWidth=1;flipH=1;labelBackgroundColor=none;fillColor=#BC6C25;strokeColor=#DDA15E;fontColor=#FEFAE0;curveFitting=1;jiggle=2;" parent="WIyWlLk6GJQsqaUBKTNV-1" vertex="1"><mxGeometry x="470" y="210" width="160" height="130" as="geometry"><mxRectangle x="500" y="260" width="160" height="26" as="alternateBounds"/></mxGeometry></mxCell><mxCell id="zkfFHV4jXpPFQw0GAbJ--18" value="id" style="text;align=left;verticalAlign=top;spacingLeft=4;spacingRight=4;overflow=hidden;rotatable=0;points=[[0,0.5],[1,0.5]];portConstraint=eastwest;labelBackgroundColor=none;fontColor=#FEFAE0;rounded=0;curveFitting=1;jiggle=2;" parent="zkfFHV4jXpPFQw0GAbJ--17" vertex="1"><mxGeometry y="26" width="160" height="26" as="geometry"/></mxCell><mxCell id="zkfFHV4jXpPFQw0GAbJ--19" value="description&#10;" style="text;align=left;verticalAlign=top;spacingLeft=4;spacingRight=4;overflow=hidden;rotatable=0;points=[[0,0.5],[1,0.5]];portConstraint=eastwest;rounded=0;shadow=0;html=0;labelBackgroundColor=none;fontColor=#FEFAE0;curveFitting=1;jiggle=2;" parent="zkfFHV4jXpPFQw0GAbJ--17" vertex="1"><mxGeometry y="52" width="160" height="26" as="geometry"/></mxCell><mxCell id="zkfFHV4jXpPFQw0GAbJ--22" value="Country" style="text;align=left;verticalAlign=top;spacingLeft=4;spacingRight=4;overflow=hidden;rotatable=0;points=[[0,0.5],[1,0.5]];portConstraint=eastwest;rounded=0;shadow=0;html=0;labelBackgroundColor=none;fontColor=#FEFAE0;curveFitting=1;jiggle=2;" parent="zkfFHV4jXpPFQw0GAbJ--17" vertex="1"><mxGeometry y="78" width="160" height="26" as="geometry"/></mxCell><mxCell id="zkfFHV4jXpPFQw0GAbJ--23" value="" style="line;html=1;strokeWidth=1;align=left;verticalAlign=middle;spacingTop=-1;spacingLeft=3;spacingRight=3;rotatable=0;labelPosition=right;points=[];portConstraint=eastwest;labelBackgroundColor=none;fillColor=#BC6C25;strokeColor=#DDA15E;fontColor=#FEFAE0;rounded=0;curveFitting=1;jiggle=2;" parent="zkfFHV4jXpPFQw0GAbJ--17" vertex="1"><mxGeometry y="104" width="160" height="8" as="geometry"/></mxCell><mxCell id="z4h46N4WCeZhkIvqXdds-113" value="&lt;font style=&quot;font-size: 15px;&quot;&gt;1&lt;br&gt;&lt;br&gt;&lt;/font&gt;" style="edgeStyle=orthogonalEdgeStyle;rounded=0;orthogonalLoop=1;jettySize=auto;html=1;exitX=0.5;exitY=1;exitDx=0;exitDy=0;labelBackgroundColor=none;fontColor=#FEFAE0;strokeColor=#DDA15E;startArrow=diamondThin;startFill=0;endSize=11;startSize=11;endArrow=open;endFill=0;curveFitting=1;jiggle=2;" parent="WIyWlLk6GJQsqaUBKTNV-1" source="z4h46N4WCeZhkIvqXdds-92" target="z4h46N4WCeZhkIvqXdds-84" edge="1"><mxGeometry x="0.75" y="10" relative="1" as="geometry"><mxPoint as="offset"/></mxGeometry></mxCell><mxCell id="z4h46N4WCeZhkIvqXdds-92" value="Submission" style="swimlane;fontStyle=1;align=center;verticalAlign=top;childLayout=stackLayout;horizontal=1;startSize=26;horizontalStack=0;resizeParent=1;resizeLast=0;collapsible=1;marginBottom=0;rounded=0;shadow=0;strokeWidth=1;labelBackgroundColor=none;fontFamily=Verdana;fillColor=#BC6C25;strokeColor=#DDA15E;fontColor=#FEFAE0;curveFitting=1;jiggle=2;" parent="WIyWlLk6GJQsqaUBKTNV-1" vertex="1"><mxGeometry x="960" y="470" width="160" height="120" as="geometry"><mxRectangle x="410" y="660" width="160" height="26" as="alternateBounds"/></mxGeometry></mxCell><mxCell id="z4h46N4WCeZhkIvqXdds-93" value="id" style="text;align=left;verticalAlign=top;spacingLeft=4;spacingRight=4;overflow=hidden;rotatable=0;points=[[0,0.5],[1,0.5]];portConstraint=eastwest;labelBackgroundColor=none;fontColor=#FEFAE0;rounded=0;curveFitting=1;jiggle=2;" parent="z4h46N4WCeZhkIvqXdds-92" vertex="1"><mxGeometry y="26" width="160" height="26" as="geometry"/></mxCell><mxCell id="z4h46N4WCeZhkIvqXdds-94" value="student" style="text;align=left;verticalAlign=top;spacingLeft=4;spacingRight=4;overflow=hidden;rotatable=0;points=[[0,0.5],[1,0.5]];portConstraint=eastwest;rounded=0;shadow=0;html=0;labelBackgroundColor=none;fontColor=#FEFAE0;curveFitting=1;jiggle=2;" parent="z4h46N4WCeZhkIvqXdds-92" vertex="1"><mxGeometry y="52" width="160" height="26" as="geometry"/></mxCell><mxCell id="z4h46N4WCeZhkIvqXdds-95" value="assessment" style="text;align=left;verticalAlign=top;spacingLeft=4;spacingRight=4;overflow=hidden;rotatable=0;points=[[0,0.5],[1,0.5]];portConstraint=eastwest;rounded=0;shadow=0;html=0;labelBackgroundColor=none;fontColor=#FEFAE0;curveFitting=1;jiggle=2;" parent="z4h46N4WCeZhkIvqXdds-92" vertex="1"><mxGeometry y="78" width="160" height="26" as="geometry"/></mxCell><mxCell id="z4h46N4WCeZhkIvqXdds-97" value="" style="line;html=1;strokeWidth=1;align=left;verticalAlign=middle;spacingTop=-1;spacingLeft=3;spacingRight=3;rotatable=0;labelPosition=right;points=[];portConstraint=eastwest;labelBackgroundColor=none;fillColor=#BC6C25;strokeColor=#DDA15E;fontColor=#FEFAE0;rounded=0;curveFitting=1;jiggle=2;" parent="z4h46N4WCeZhkIvqXdds-92" vertex="1"><mxGeometry y="104" width="160" height="8" as="geometry"/></mxCell><mxCell id="z4h46N4WCeZhkIvqXdds-106" style="edgeStyle=orthogonalEdgeStyle;rounded=0;orthogonalLoop=1;jettySize=auto;html=1;exitX=0.5;exitY=0;exitDx=0;exitDy=0;entryX=0.5;entryY=1;entryDx=0;entryDy=0;labelBackgroundColor=none;fontColor=#FEFAE0;strokeColor=#DDA15E;curveFitting=1;jiggle=2;" parent="WIyWlLk6GJQsqaUBKTNV-1" source="z4h46N4WCeZhkIvqXdds-33" target="zkfFHV4jXpPFQw0GAbJ--17" edge="1"><mxGeometry relative="1" as="geometry"><mxPoint x="385" y="360" as="targetPoint"/></mxGeometry></mxCell><mxCell id="z4h46N4WCeZhkIvqXdds-33" value="Teacher " style="swimlane;fontStyle=1;align=center;verticalAlign=top;childLayout=stackLayout;horizontal=1;startSize=26;horizontalStack=0;resizeParent=1;resizeLast=0;collapsible=1;marginBottom=0;rounded=0;shadow=0;strokeWidth=1;flipH=1;labelBackgroundColor=none;fillColor=#BC6C25;strokeColor=#DDA15E;fontColor=#FEFAE0;curveFitting=1;jiggle=2;" parent="WIyWlLk6GJQsqaUBKTNV-1" vertex="1"><mxGeometry x="375" y="390" width="175" height="120" as="geometry"><mxRectangle x="370" y="410" width="160" height="26" as="alternateBounds"/></mxGeometry></mxCell><mxCell id="z4h46N4WCeZhkIvqXdds-34" value="id" style="text;align=left;verticalAlign=top;spacingLeft=4;spacingRight=4;overflow=hidden;rotatable=0;points=[[0,0.5],[1,0.5]];portConstraint=eastwest;labelBackgroundColor=none;fontColor=#FEFAE0;rounded=0;curveFitting=1;jiggle=2;" parent="z4h46N4WCeZhkIvqXdds-33" vertex="1"><mxGeometry y="26" width="175" height="26" as="geometry"/></mxCell><mxCell id="z4h46N4WCeZhkIvqXdds-35" value="name" style="text;align=left;verticalAlign=top;spacingLeft=4;spacingRight=4;overflow=hidden;rotatable=0;points=[[0,0.5],[1,0.5]];portConstraint=eastwest;rounded=0;shadow=0;html=0;labelBackgroundColor=none;fontColor=#FEFAE0;curveFitting=1;jiggle=2;" parent="z4h46N4WCeZhkIvqXdds-33" vertex="1"><mxGeometry y="52" width="175" height="26" as="geometry"/></mxCell><mxCell id="z4h46N4WCeZhkIvqXdds-163" value="science : Science " style="text;align=left;verticalAlign=top;spacingLeft=4;spacingRight=4;overflow=hidden;rotatable=0;points=[[0,0.5],[1,0.5]];portConstraint=eastwest;rounded=0;shadow=0;html=0;labelBackgroundColor=none;fontColor=#FEFAE0;curveFitting=1;jiggle=2;" parent="z4h46N4WCeZhkIvqXdds-33" vertex="1"><mxGeometry y="78" width="175" height="22" as="geometry"/></mxCell><mxCell id="z4h46N4WCeZhkIvqXdds-37" value="" style="line;html=1;strokeWidth=1;align=left;verticalAlign=middle;spacingTop=-1;spacingLeft=3;spacingRight=3;rotatable=0;labelPosition=right;points=[];portConstraint=eastwest;labelBackgroundColor=none;fillColor=#BC6C25;strokeColor=#DDA15E;fontColor=#FEFAE0;rounded=0;curveFitting=1;jiggle=2;" parent="z4h46N4WCeZhkIvqXdds-33" vertex="1"><mxGeometry y="100" width="175" height="8" as="geometry"/></mxCell><mxCell id="z4h46N4WCeZhkIvqXdds-112" value="&lt;font style=&quot;font-size: 15px;&quot;&gt;0...*&lt;/font&gt;" style="edgeStyle=orthogonalEdgeStyle;orthogonalLoop=1;jettySize=auto;html=1;exitX=0.5;exitY=1;exitDx=0;exitDy=0;entryX=0.5;entryY=1;entryDx=0;entryDy=0;labelBackgroundColor=none;fontColor=#FEFAE0;strokeColor=#DDA15E;startArrow=none;startFill=0;endArrow=diamondThin;endFill=0;endSize=12;startSize=12;rounded=0;curveFitting=1;jiggle=2;" parent="WIyWlLk6GJQsqaUBKTNV-1" source="z4h46N4WCeZhkIvqXdds-42" target="z4h46N4WCeZhkIvqXdds-84" edge="1"><mxGeometry x="-0.8903" y="-10" relative="1" as="geometry"><mxPoint as="offset"/></mxGeometry></mxCell><mxCell id="z4h46N4WCeZhkIvqXdds-133" style="edgeStyle=orthogonalEdgeStyle;rounded=0;orthogonalLoop=1;jettySize=auto;html=1;exitX=0.5;exitY=0;exitDx=0;exitDy=0;entryX=0.5;entryY=1;entryDx=0;entryDy=0;strokeColor=#DDA15E;fontColor=#FEFAE0;endSize=12;startSize=12;startArrow=diamondThin;startFill=0;endArrow=open;endFill=0;curveFitting=1;jiggle=2;labelBackgroundColor=#283618;" parent="WIyWlLk6GJQsqaUBKTNV-1" source="z4h46N4WCeZhkIvqXdds-42" target="z4h46N4WCeZhkIvqXdds-33" edge="1"><mxGeometry relative="1" as="geometry"/></mxCell><mxCell id="z4h46N4WCeZhkIvqXdds-135" style="edgeStyle=orthogonalEdgeStyle;rounded=0;orthogonalLoop=1;jettySize=auto;html=1;exitX=0.5;exitY=0;exitDx=0;exitDy=0;entryX=0.25;entryY=1;entryDx=0;entryDy=0;strokeColor=#DDA15E;fontColor=#FEFAE0;startArrow=diamondThin;startFill=0;endSize=12;startSize=12;endArrow=open;endFill=0;curveFitting=1;jiggle=2;labelBackgroundColor=#283618;" parent="WIyWlLk6GJQsqaUBKTNV-1" source="z4h46N4WCeZhkIvqXdds-42" target="z4h46N4WCeZhkIvqXdds-47" edge="1"><mxGeometry relative="1" as="geometry"/></mxCell><mxCell id="z4h46N4WCeZhkIvqXdds-138" style="edgeStyle=orthogonalEdgeStyle;rounded=0;orthogonalLoop=1;jettySize=auto;html=1;exitX=0.25;exitY=0;exitDx=0;exitDy=0;entryX=0.5;entryY=0;entryDx=0;entryDy=0;strokeColor=#DDA15E;fontColor=#FEFAE0;endArrow=open;endFill=0;endSize=12;startSize=12;startArrow=diamondThin;startFill=0;curveFitting=1;jiggle=2;labelBackgroundColor=#283618;" parent="WIyWlLk6GJQsqaUBKTNV-1" source="z4h46N4WCeZhkIvqXdds-42" target="zkfFHV4jXpPFQw0GAbJ--17" edge="1"><mxGeometry relative="1" as="geometry"/></mxCell><mxCell id="z4h46N4WCeZhkIvqXdds-42" value="Event" style="swimlane;fontStyle=1;align=center;verticalAlign=top;childLayout=stackLayout;horizontal=1;startSize=26;horizontalStack=0;resizeParent=1;resizeLast=0;collapsible=1;marginBottom=0;rounded=0;shadow=0;strokeWidth=1;flipH=1;labelBackgroundColor=none;fillColor=#BC6C25;strokeColor=#DDA15E;fontColor=#FEFAE0;curveFitting=1;jiggle=2;" parent="WIyWlLk6GJQsqaUBKTNV-1" vertex="1"><mxGeometry x="250" y="580" width="170" height="280" as="geometry"><mxRectangle x="620" y="320" width="160" height="26" as="alternateBounds"/></mxGeometry></mxCell><mxCell id="z4h46N4WCeZhkIvqXdds-43" value="id" style="text;align=left;verticalAlign=top;spacingLeft=4;spacingRight=4;overflow=hidden;rotatable=0;points=[[0,0.5],[1,0.5]];portConstraint=eastwest;labelBackgroundColor=none;fontColor=#FEFAE0;rounded=0;curveFitting=1;jiggle=2;" parent="z4h46N4WCeZhkIvqXdds-42" vertex="1"><mxGeometry y="26" width="170" height="26" as="geometry"/></mxCell><mxCell id="z4h46N4WCeZhkIvqXdds-44" value="description&#10;" style="text;align=left;verticalAlign=top;spacingLeft=4;spacingRight=4;overflow=hidden;rotatable=0;points=[[0,0.5],[1,0.5]];portConstraint=eastwest;rounded=0;shadow=0;html=0;labelBackgroundColor=none;fontColor=#FEFAE0;curveFitting=1;jiggle=2;" parent="z4h46N4WCeZhkIvqXdds-42" vertex="1"><mxGeometry y="52" width="170" height="26" as="geometry"/></mxCell><mxCell id="z4h46N4WCeZhkIvqXdds-82" value="groups : Group" style="text;align=left;verticalAlign=top;spacingLeft=4;spacingRight=4;overflow=hidden;rotatable=0;points=[[0,0.5],[1,0.5]];portConstraint=eastwest;rounded=0;shadow=0;html=0;labelBackgroundColor=none;fontColor=#FEFAE0;curveFitting=1;jiggle=2;" parent="z4h46N4WCeZhkIvqXdds-42" vertex="1"><mxGeometry y="78" width="170" height="26" as="geometry"/></mxCell><mxCell id="z4h46N4WCeZhkIvqXdds-105" value="teacher : Teacher" style="text;align=left;verticalAlign=top;spacingLeft=4;spacingRight=4;overflow=hidden;rotatable=0;points=[[0,0.5],[1,0.5]];portConstraint=eastwest;rounded=0;shadow=0;html=0;labelBackgroundColor=none;fontColor=#FEFAE0;curveFitting=1;jiggle=2;" parent="z4h46N4WCeZhkIvqXdds-42" vertex="1"><mxGeometry y="104" width="170" height="26" as="geometry"/></mxCell><mxCell id="z4h46N4WCeZhkIvqXdds-104" value="science : Science" style="text;align=left;verticalAlign=top;spacingLeft=4;spacingRight=4;overflow=hidden;rotatable=0;points=[[0,0.5],[1,0.5]];portConstraint=eastwest;rounded=0;shadow=0;html=0;labelBackgroundColor=none;fontColor=#FEFAE0;curveFitting=1;jiggle=2;" parent="z4h46N4WCeZhkIvqXdds-42" vertex="1"><mxGeometry y="130" width="170" height="26" as="geometry"/></mxCell><mxCell id="z4h46N4WCeZhkIvqXdds-45" value="eventType : EventType" style="text;align=left;verticalAlign=top;spacingLeft=4;spacingRight=4;overflow=hidden;rotatable=0;points=[[0,0.5],[1,0.5]];portConstraint=eastwest;rounded=0;shadow=0;html=0;labelBackgroundColor=none;fontColor=#FEFAE0;curveFitting=1;jiggle=2;" parent="z4h46N4WCeZhkIvqXdds-42" vertex="1"><mxGeometry y="156" width="170" height="26" as="geometry"/></mxCell><mxCell id="z4h46N4WCeZhkIvqXdds-79" value="eventMonth : EventMonth " style="text;align=left;verticalAlign=top;spacingLeft=4;spacingRight=4;overflow=hidden;rotatable=0;points=[[0,0.5],[1,0.5]];portConstraint=eastwest;rounded=0;shadow=0;html=0;labelBackgroundColor=none;fontColor=#FEFAE0;curveFitting=1;jiggle=2;" parent="z4h46N4WCeZhkIvqXdds-42" vertex="1"><mxGeometry y="182" width="170" height="26" as="geometry"/></mxCell><mxCell id="z4h46N4WCeZhkIvqXdds-81" value="eventTime : EventTime" style="text;align=left;verticalAlign=top;spacingLeft=4;spacingRight=4;overflow=hidden;rotatable=0;points=[[0,0.5],[1,0.5]];portConstraint=eastwest;rounded=0;shadow=0;html=0;labelBackgroundColor=none;fontColor=#FEFAE0;curveFitting=1;jiggle=2;" parent="z4h46N4WCeZhkIvqXdds-42" vertex="1"><mxGeometry y="208" width="170" height="26" as="geometry"/></mxCell><mxCell id="z4h46N4WCeZhkIvqXdds-80" value="eventDay : EventDay&#10;" style="text;align=left;verticalAlign=top;spacingLeft=4;spacingRight=4;overflow=hidden;rotatable=0;points=[[0,0.5],[1,0.5]];portConstraint=eastwest;rounded=0;shadow=0;html=0;labelBackgroundColor=none;fontColor=#FEFAE0;curveFitting=1;jiggle=2;" parent="z4h46N4WCeZhkIvqXdds-42" vertex="1"><mxGeometry y="234" width="170" height="26" as="geometry"/></mxCell><mxCell id="z4h46N4WCeZhkIvqXdds-46" value="" style="line;html=1;strokeWidth=1;align=left;verticalAlign=middle;spacingTop=-1;spacingLeft=3;spacingRight=3;rotatable=0;labelPosition=right;points=[];portConstraint=eastwest;labelBackgroundColor=none;fillColor=#BC6C25;strokeColor=#DDA15E;fontColor=#FEFAE0;rounded=0;curveFitting=1;jiggle=2;" parent="z4h46N4WCeZhkIvqXdds-42" vertex="1"><mxGeometry y="260" width="170" height="8" as="geometry"/></mxCell><mxCell id="z4h46N4WCeZhkIvqXdds-47" value="Group" style="swimlane;fontStyle=1;align=center;verticalAlign=top;childLayout=stackLayout;horizontal=1;startSize=26;horizontalStack=0;resizeParent=1;resizeLast=0;collapsible=1;marginBottom=0;rounded=0;shadow=0;strokeWidth=1;flipH=1;labelBackgroundColor=none;fillColor=#BC6C25;strokeColor=#DDA15E;fontColor=#FEFAE0;curveFitting=1;jiggle=2;" parent="WIyWlLk6GJQsqaUBKTNV-1" vertex="1"><mxGeometry x="580" y="410" width="160" height="100" as="geometry"><mxRectangle x="410" y="660" width="160" height="26" as="alternateBounds"/></mxGeometry></mxCell><mxCell id="z4h46N4WCeZhkIvqXdds-48" value="id" style="text;align=left;verticalAlign=top;spacingLeft=4;spacingRight=4;overflow=hidden;rotatable=0;points=[[0,0.5],[1,0.5]];portConstraint=eastwest;labelBackgroundColor=none;fontColor=#FEFAE0;rounded=0;curveFitting=1;jiggle=2;" parent="z4h46N4WCeZhkIvqXdds-47" vertex="1"><mxGeometry y="26" width="160" height="26" as="geometry"/></mxCell><mxCell id="z4h46N4WCeZhkIvqXdds-49" value="description&#10;" style="text;align=left;verticalAlign=top;spacingLeft=4;spacingRight=4;overflow=hidden;rotatable=0;points=[[0,0.5],[1,0.5]];portConstraint=eastwest;rounded=0;shadow=0;html=0;labelBackgroundColor=none;fontColor=#FEFAE0;curveFitting=1;jiggle=2;" parent="z4h46N4WCeZhkIvqXdds-47" vertex="1"><mxGeometry y="52" width="160" height="26" as="geometry"/></mxCell><mxCell id="z4h46N4WCeZhkIvqXdds-51" value="" style="line;html=1;strokeWidth=1;align=left;verticalAlign=middle;spacingTop=-1;spacingLeft=3;spacingRight=3;rotatable=0;labelPosition=right;points=[];portConstraint=eastwest;labelBackgroundColor=none;fillColor=#BC6C25;strokeColor=#DDA15E;fontColor=#FEFAE0;rounded=0;curveFitting=1;jiggle=2;" parent="z4h46N4WCeZhkIvqXdds-47" vertex="1"><mxGeometry y="78" width="160" height="8" as="geometry"/></mxCell><mxCell id="z4h46N4WCeZhkIvqXdds-110" value="&lt;font style=&quot;font-size: 15px;&quot;&gt;&lt;br&gt;&lt;span style=&quot;color: rgb(0, 0, 0); font-family: Helvetica; font-style: normal; font-variant-ligatures: normal; font-variant-caps: normal; letter-spacing: normal; orphans: 2; text-align: center; text-indent: 0px; text-transform: none; widows: 2; word-spacing: 0px; -webkit-text-stroke-width: 0px; background-color: rgb(251, 251, 251); text-decoration-thickness: initial; text-decoration-style: initial; text-decoration-color: initial; float: none; display: inline !important;&quot;&gt;1&lt;/span&gt;&lt;br&gt;&lt;/font&gt;" style="edgeStyle=orthogonalEdgeStyle;rounded=0;orthogonalLoop=1;jettySize=auto;html=1;exitX=0.5;exitY=0;exitDx=0;exitDy=0;entryX=0.5;entryY=1;entryDx=0;entryDy=0;labelBackgroundColor=none;fontColor=#FEFAE0;strokeColor=#DDA15E;startArrow=diamondThin;startFill=1;endArrow=open;endFill=0;fontStyle=1;endSize=12;startSize=12;curveFitting=1;jiggle=2;" parent="WIyWlLk6GJQsqaUBKTNV-1" source="z4h46N4WCeZhkIvqXdds-55" target="z4h46N4WCeZhkIvqXdds-47" edge="1"><mxGeometry x="-0.5789" y="-20" relative="1" as="geometry"><mxPoint as="offset"/></mxGeometry></mxCell><mxCell id="z4h46N4WCeZhkIvqXdds-55" value="Student" style="swimlane;fontStyle=1;align=center;verticalAlign=top;childLayout=stackLayout;horizontal=1;startSize=26;horizontalStack=0;resizeParent=1;resizeLast=0;collapsible=1;marginBottom=0;rounded=0;shadow=0;strokeWidth=1;flipH=1;labelBackgroundColor=none;fillColor=#BC6C25;strokeColor=#DDA15E;fontColor=#FEFAE0;curveFitting=1;jiggle=2;" parent="WIyWlLk6GJQsqaUBKTNV-1" vertex="1"><mxGeometry x="710" y="570" width="160" height="150" as="geometry"><mxRectangle x="410" y="660" width="160" height="26" as="alternateBounds"/></mxGeometry></mxCell><mxCell id="z4h46N4WCeZhkIvqXdds-56" value="id" style="text;align=left;verticalAlign=top;spacingLeft=4;spacingRight=4;overflow=hidden;rotatable=0;points=[[0,0.5],[1,0.5]];portConstraint=eastwest;labelBackgroundColor=none;fontColor=#FEFAE0;rounded=0;curveFitting=1;jiggle=2;" parent="z4h46N4WCeZhkIvqXdds-55" vertex="1"><mxGeometry y="26" width="160" height="26" as="geometry"/></mxCell><mxCell id="z4h46N4WCeZhkIvqXdds-57" value="name " style="text;align=left;verticalAlign=top;spacingLeft=4;spacingRight=4;overflow=hidden;rotatable=0;points=[[0,0.5],[1,0.5]];portConstraint=eastwest;rounded=0;shadow=0;html=0;labelBackgroundColor=none;fontColor=#FEFAE0;curveFitting=1;jiggle=2;" parent="z4h46N4WCeZhkIvqXdds-55" vertex="1"><mxGeometry y="52" width="160" height="26" as="geometry"/></mxCell><mxCell id="z4h46N4WCeZhkIvqXdds-83" value="group : Group" style="text;align=left;verticalAlign=top;spacingLeft=4;spacingRight=4;overflow=hidden;rotatable=0;points=[[0,0.5],[1,0.5]];portConstraint=eastwest;rounded=0;shadow=0;html=0;labelBackgroundColor=none;fontColor=#FEFAE0;curveFitting=1;jiggle=2;" parent="z4h46N4WCeZhkIvqXdds-55" vertex="1"><mxGeometry y="78" width="160" height="26" as="geometry"/></mxCell><mxCell id="z4h46N4WCeZhkIvqXdds-59" value="address : Address" style="text;align=left;verticalAlign=top;spacingLeft=4;spacingRight=4;overflow=hidden;rotatable=0;points=[[0,0.5],[1,0.5]];portConstraint=eastwest;rounded=0;shadow=0;html=0;labelBackgroundColor=none;fontColor=#FEFAE0;curveFitting=1;jiggle=2;" parent="z4h46N4WCeZhkIvqXdds-55" vertex="1"><mxGeometry y="104" width="160" height="26" as="geometry"/></mxCell><mxCell id="z4h46N4WCeZhkIvqXdds-61" value="" style="line;html=1;strokeWidth=1;align=left;verticalAlign=middle;spacingTop=-1;spacingLeft=3;spacingRight=3;rotatable=0;labelPosition=right;points=[];portConstraint=eastwest;labelBackgroundColor=none;fillColor=#BC6C25;strokeColor=#DDA15E;fontColor=#FEFAE0;rounded=0;curveFitting=1;jiggle=2;" parent="z4h46N4WCeZhkIvqXdds-55" vertex="1"><mxGeometry y="130" width="160" height="8" as="geometry"/></mxCell><mxCell id="z4h46N4WCeZhkIvqXdds-164" style="edgeStyle=orthogonalEdgeStyle;rounded=0;orthogonalLoop=1;jettySize=auto;html=1;exitX=0;exitY=0.5;exitDx=0;exitDy=0;entryX=1;entryY=0.5;entryDx=0;entryDy=0;strokeColor=#DDA15E;fontColor=#FEFAE0;endSize=12;startSize=12;endArrow=open;endFill=0;startArrow=diamondThin;startFill=1;curveFitting=1;jiggle=2;labelBackgroundColor=#283618;" parent="WIyWlLk6GJQsqaUBKTNV-1" source="z4h46N4WCeZhkIvqXdds-86" target="z4h46N4WCeZhkIvqXdds-83" edge="1"><mxGeometry relative="1" as="geometry"/></mxCell><mxCell id="z4h46N4WCeZhkIvqXdds-84" value="Assessment" style="swimlane;fontStyle=1;align=center;verticalAlign=top;childLayout=stackLayout;horizontal=1;startSize=26;horizontalStack=0;resizeParent=1;resizeLast=0;collapsible=1;marginBottom=0;rounded=0;shadow=0;strokeWidth=1;flipH=1;labelBackgroundColor=none;fillColor=#BC6C25;strokeColor=#DDA15E;fontColor=#FEFAE0;curveFitting=1;jiggle=2;" parent="WIyWlLk6GJQsqaUBKTNV-1" vertex="1"><mxGeometry x="960" y="670" width="160" height="150" as="geometry"><mxRectangle x="410" y="660" width="160" height="26" as="alternateBounds"/></mxGeometry></mxCell><mxCell id="z4h46N4WCeZhkIvqXdds-85" value="id" style="text;align=left;verticalAlign=top;spacingLeft=4;spacingRight=4;overflow=hidden;rotatable=0;points=[[0,0.5],[1,0.5]];portConstraint=eastwest;labelBackgroundColor=none;fontColor=#FEFAE0;rounded=0;curveFitting=1;jiggle=2;" parent="z4h46N4WCeZhkIvqXdds-84" vertex="1"><mxGeometry y="26" width="160" height="26" as="geometry"/></mxCell><mxCell id="z4h46N4WCeZhkIvqXdds-86" value="student : Student" style="text;align=left;verticalAlign=top;spacingLeft=4;spacingRight=4;overflow=hidden;rotatable=0;points=[[0,0.5],[1,0.5]];portConstraint=eastwest;rounded=0;shadow=0;html=0;labelBackgroundColor=none;fontColor=#FEFAE0;curveFitting=1;jiggle=2;" parent="z4h46N4WCeZhkIvqXdds-84" vertex="1"><mxGeometry y="52" width="160" height="26" as="geometry"/></mxCell><mxCell id="z4h46N4WCeZhkIvqXdds-91" value="description" style="text;align=left;verticalAlign=top;spacingLeft=4;spacingRight=4;overflow=hidden;rotatable=0;points=[[0,0.5],[1,0.5]];portConstraint=eastwest;rounded=0;shadow=0;html=0;labelBackgroundColor=none;fontColor=#FEFAE0;curveFitting=1;jiggle=2;" parent="z4h46N4WCeZhkIvqXdds-84" vertex="1"><mxGeometry y="78" width="160" height="26" as="geometry"/></mxCell><mxCell id="z4h46N4WCeZhkIvqXdds-111" value="event  : Event" style="text;align=left;verticalAlign=top;spacingLeft=4;spacingRight=4;overflow=hidden;rotatable=0;points=[[0,0.5],[1,0.5]];portConstraint=eastwest;rounded=0;shadow=0;html=0;labelBackgroundColor=none;fontColor=#FEFAE0;curveFitting=1;jiggle=2;" parent="z4h46N4WCeZhkIvqXdds-84" vertex="1"><mxGeometry y="104" width="160" height="26" as="geometry"/></mxCell><mxCell id="z4h46N4WCeZhkIvqXdds-89" value="" style="line;html=1;strokeWidth=1;align=left;verticalAlign=middle;spacingTop=-1;spacingLeft=3;spacingRight=3;rotatable=0;labelPosition=right;points=[];portConstraint=eastwest;labelBackgroundColor=none;fillColor=#BC6C25;strokeColor=#DDA15E;fontColor=#FEFAE0;rounded=0;curveFitting=1;jiggle=2;" parent="z4h46N4WCeZhkIvqXdds-84" vertex="1"><mxGeometry y="130" width="160" height="8" as="geometry"/></mxCell><mxCell id="z4h46N4WCeZhkIvqXdds-114" value="&lt;font style=&quot;font-size: 15px;&quot;&gt;&lt;b&gt;0...*&lt;/b&gt;&lt;/font&gt;" style="edgeStyle=orthogonalEdgeStyle;rounded=0;orthogonalLoop=1;jettySize=auto;html=1;exitX=0;exitY=0.5;exitDx=0;exitDy=0;entryX=0.75;entryY=0;entryDx=0;entryDy=0;verticalAlign=middle;labelBackgroundColor=none;fontColor=#FEFAE0;strokeColor=#DDA15E;startArrow=diamondThin;startFill=1;endSize=11;startSize=11;endArrow=open;endFill=0;curveFitting=1;jiggle=2;" parent="WIyWlLk6GJQsqaUBKTNV-1" source="z4h46N4WCeZhkIvqXdds-94" target="z4h46N4WCeZhkIvqXdds-55" edge="1"><mxGeometry x="0.4545" y="-15" relative="1" as="geometry"><mxPoint as="offset"/></mxGeometry></mxCell><mxCell id="z4h46N4WCeZhkIvqXdds-123" style="edgeStyle=orthogonalEdgeStyle;rounded=0;orthogonalLoop=1;jettySize=auto;html=1;exitX=0.5;exitY=0;exitDx=0;exitDy=0;entryX=0.5;entryY=1;entryDx=0;entryDy=0;strokeColor=#DDA15E;fontColor=#FEFAE0;startArrow=open;startFill=0;endSize=12;startSize=12;endArrow=diamondThin;endFill=1;curveFitting=1;jiggle=2;labelBackgroundColor=#283618;" parent="WIyWlLk6GJQsqaUBKTNV-1" source="z4h46N4WCeZhkIvqXdds-122" target="z4h46N4WCeZhkIvqXdds-55" edge="1"><mxGeometry relative="1" as="geometry"/></mxCell><mxCell id="z4h46N4WCeZhkIvqXdds-122" value="&lt;b&gt;Address&lt;/b&gt;" style="html=1;whiteSpace=wrap;strokeColor=#DDA15E;fontColor=#FEFAE0;fillColor=#BC6C25;rounded=0;curveFitting=1;jiggle=2;" parent="WIyWlLk6GJQsqaUBKTNV-1" vertex="1"><mxGeometry x="747.5" y="760" width="85" height="30" as="geometry"/></mxCell><mxCell id="z4h46N4WCeZhkIvqXdds-128" value="1" style="text;html=1;strokeColor=none;fillColor=none;align=center;verticalAlign=middle;whiteSpace=wrap;rounded=0;fontColor=#FEFAE0;fontSize=16;fontStyle=1;curveFitting=1;jiggle=2;" parent="WIyWlLk6GJQsqaUBKTNV-1" vertex="1"><mxGeometry x="1000" y="880" width="50" height="20" as="geometry"/></mxCell><mxCell id="z4h46N4WCeZhkIvqXdds-129" value="&lt;b&gt;0...*&lt;/b&gt;" style="text;html=1;strokeColor=none;fillColor=none;align=center;verticalAlign=middle;whiteSpace=wrap;rounded=0;fontColor=#FEFAE0;fontSize=16;curveFitting=1;jiggle=2;" parent="WIyWlLk6GJQsqaUBKTNV-1" vertex="1"><mxGeometry x="660" y="520" width="50" height="20" as="geometry"/></mxCell><mxCell id="z4h46N4WCeZhkIvqXdds-130" value="&lt;b&gt;1&lt;br&gt;&lt;/b&gt;" style="text;html=1;strokeColor=none;fillColor=none;align=center;verticalAlign=middle;whiteSpace=wrap;rounded=0;fontColor=#FEFAE0;fontSize=16;curveFitting=1;jiggle=2;" parent="WIyWlLk6GJQsqaUBKTNV-1" vertex="1"><mxGeometry x="910" y="510" width="50" height="20" as="geometry"/></mxCell><mxCell id="z4h46N4WCeZhkIvqXdds-147" style="edgeStyle=orthogonalEdgeStyle;rounded=0;orthogonalLoop=1;jettySize=auto;html=1;exitX=0;exitY=0.5;exitDx=0;exitDy=0;strokeColor=#DDA15E;fontColor=#FEFAE0;entryX=1;entryY=0.5;entryDx=0;entryDy=0;endArrow=diamondThin;endFill=1;endSize=12;curveFitting=1;jiggle=2;labelBackgroundColor=#283618;" parent="WIyWlLk6GJQsqaUBKTNV-1" source="z4h46N4WCeZhkIvqXdds-139" target="z4h46N4WCeZhkIvqXdds-80" edge="1"><mxGeometry relative="1" as="geometry"/></mxCell><mxCell id="z4h46N4WCeZhkIvqXdds-139" value="&lt;b&gt;EventTime&lt;/b&gt;" style="html=1;whiteSpace=wrap;strokeColor=#DDA15E;fontColor=#FEFAE0;fillColor=#BC6C25;rounded=0;curveFitting=1;jiggle=2;" parent="WIyWlLk6GJQsqaUBKTNV-1" vertex="1"><mxGeometry x="545" y="720" width="85" height="30" as="geometry"/></mxCell><mxCell id="z4h46N4WCeZhkIvqXdds-146" style="edgeStyle=orthogonalEdgeStyle;rounded=0;orthogonalLoop=1;jettySize=auto;html=1;exitX=0;exitY=0.5;exitDx=0;exitDy=0;entryX=1;entryY=0.5;entryDx=0;entryDy=0;strokeColor=#DDA15E;fontColor=#FEFAE0;endArrow=diamondThin;endFill=1;endSize=12;curveFitting=1;jiggle=2;labelBackgroundColor=#283618;" parent="WIyWlLk6GJQsqaUBKTNV-1" source="z4h46N4WCeZhkIvqXdds-140" target="z4h46N4WCeZhkIvqXdds-80" edge="1"><mxGeometry relative="1" as="geometry"/></mxCell><mxCell id="z4h46N4WCeZhkIvqXdds-140" value="&lt;b&gt;EventMonth&amp;nbsp;&lt;/b&gt;" style="html=1;whiteSpace=wrap;strokeColor=#DDA15E;fontColor=#FEFAE0;fillColor=#BC6C25;rounded=0;curveFitting=1;jiggle=2;" parent="WIyWlLk6GJQsqaUBKTNV-1" vertex="1"><mxGeometry x="545" y="670" width="85" height="30" as="geometry"/></mxCell><mxCell id="z4h46N4WCeZhkIvqXdds-153" style="edgeStyle=orthogonalEdgeStyle;rounded=0;orthogonalLoop=1;jettySize=auto;html=1;exitX=0;exitY=0.5;exitDx=0;exitDy=0;entryX=1;entryY=0.5;entryDx=0;entryDy=0;strokeColor=#DDA15E;fontColor=#FEFAE0;endArrow=diamondThin;endFill=1;endSize=12;curveFitting=1;jiggle=2;labelBackgroundColor=#283618;" parent="WIyWlLk6GJQsqaUBKTNV-1" source="z4h46N4WCeZhkIvqXdds-141" target="z4h46N4WCeZhkIvqXdds-80" edge="1"><mxGeometry relative="1" as="geometry"/></mxCell><mxCell id="z4h46N4WCeZhkIvqXdds-141" value="&lt;b&gt;EventType&lt;/b&gt;" style="html=1;whiteSpace=wrap;strokeColor=#DDA15E;fontColor=#FEFAE0;fillColor=#BC6C25;rounded=0;curveFitting=1;jiggle=2;" parent="WIyWlLk6GJQsqaUBKTNV-1" vertex="1"><mxGeometry x="545" y="620" width="85" height="30" as="geometry"/></mxCell><mxCell id="z4h46N4WCeZhkIvqXdds-151" style="edgeStyle=orthogonalEdgeStyle;rounded=0;orthogonalLoop=1;jettySize=auto;html=1;exitX=0;exitY=0.5;exitDx=0;exitDy=0;entryX=1;entryY=0.5;entryDx=0;entryDy=0;strokeColor=#DDA15E;fontColor=#FEFAE0;endArrow=diamondThin;endFill=1;endSize=12;curveFitting=1;jiggle=2;labelBackgroundColor=#283618;" parent="WIyWlLk6GJQsqaUBKTNV-1" source="z4h46N4WCeZhkIvqXdds-142" target="z4h46N4WCeZhkIvqXdds-80" edge="1"><mxGeometry relative="1" as="geometry"/></mxCell><mxCell id="z4h46N4WCeZhkIvqXdds-142" value="&lt;b&gt;EventDay&lt;/b&gt;" style="html=1;whiteSpace=wrap;strokeColor=#DDA15E;fontColor=#FEFAE0;fillColor=#BC6C25;rounded=0;curveFitting=1;jiggle=2;" parent="WIyWlLk6GJQsqaUBKTNV-1" vertex="1"><mxGeometry x="545" y="770" width="85" height="30" as="geometry"/></mxCell><mxCell id="z4h46N4WCeZhkIvqXdds-154" value="&lt;b&gt;0\1&lt;/b&gt;" style="text;html=1;strokeColor=none;fillColor=none;align=center;verticalAlign=middle;whiteSpace=wrap;rounded=0;fontColor=#FEFAE0;fontSize=16;curveFitting=1;jiggle=2;" parent="WIyWlLk6GJQsqaUBKTNV-1" vertex="1"><mxGeometry x="340" y="550" width="50" height="20" as="geometry"/></mxCell><mxCell id="z4h46N4WCeZhkIvqXdds-155" value="&lt;b&gt;0...*&lt;/b&gt;" style="text;html=1;strokeColor=none;fillColor=none;align=center;verticalAlign=middle;whiteSpace=wrap;rounded=0;fontColor=#FEFAE0;fontSize=16;curveFitting=1;jiggle=2;" parent="WIyWlLk6GJQsqaUBKTNV-1" vertex="1"><mxGeometry x="562.5" y="520" width="50" height="20" as="geometry"/></mxCell><mxCell id="z4h46N4WCeZhkIvqXdds-156" value="&lt;b&gt;0...*&lt;/b&gt;" style="text;html=1;strokeColor=none;fillColor=none;align=center;verticalAlign=middle;whiteSpace=wrap;rounded=0;fontColor=#FEFAE0;fontSize=16;curveFitting=1;jiggle=2;" parent="WIyWlLk6GJQsqaUBKTNV-1" vertex="1"><mxGeometry x="400" y="520" width="50" height="20" as="geometry"/></mxCell><mxCell id="z4h46N4WCeZhkIvqXdds-157" value="&lt;b&gt;0\1&lt;/b&gt;" style="text;html=1;strokeColor=none;fillColor=none;align=center;verticalAlign=middle;whiteSpace=wrap;rounded=0;fontColor=#FEFAE0;fontSize=16;curveFitting=1;jiggle=2;" parent="WIyWlLk6GJQsqaUBKTNV-1" vertex="1"><mxGeometry x="240" y="550" width="50" height="20" as="geometry"/></mxCell><mxCell id="z4h46N4WCeZhkIvqXdds-158" value="&lt;b&gt;0...*&lt;/b&gt;" style="text;html=1;strokeColor=none;fillColor=none;align=center;verticalAlign=middle;whiteSpace=wrap;rounded=0;fontColor=#FEFAE0;fontSize=16;curveFitting=1;jiggle=2;" parent="WIyWlLk6GJQsqaUBKTNV-1" vertex="1"><mxGeometry x="500" y="160" width="50" height="20" as="geometry"/></mxCell><mxCell id="z4h46N4WCeZhkIvqXdds-160" value="&lt;b&gt;1...*&lt;/b&gt;" style="text;html=1;strokeColor=none;fillColor=none;align=center;verticalAlign=middle;whiteSpace=wrap;rounded=0;fontColor=#FEFAE0;fontSize=16;curveFitting=1;jiggle=2;" parent="WIyWlLk6GJQsqaUBKTNV-1" vertex="1"><mxGeometry x="430" y="370" width="30" height="20" as="geometry"/></mxCell><mxCell id="z4h46N4WCeZhkIvqXdds-161" value="&lt;b style=&quot;border-color: var(--border-color); color: rgb(92, 92, 92); font-family: Helvetica; font-size: 16px; font-style: normal; font-variant-ligatures: normal; font-variant-caps: normal; letter-spacing: normal; orphans: 2; text-align: center; text-indent: 0px; text-transform: none; widows: 2; word-spacing: 0px; -webkit-text-stroke-width: 0px; background-color: rgb(251, 251, 251); text-decoration-thickness: initial; text-decoration-style: initial; text-decoration-color: initial;&quot;&gt;1...*&lt;/b&gt;" style="text;whiteSpace=wrap;html=1;fontColor=#FEFAE0;rounded=0;curveFitting=1;jiggle=2;" parent="WIyWlLk6GJQsqaUBKTNV-1" vertex="1"><mxGeometry x="552.5" y="340" width="27.5" height="30" as="geometry"/></mxCell></root></mxGraphModel></diagram></mxfile>